<?xml version="1.0" encoding="UTF-8"?><svg id="Calque_1" xmlns="http://www.w3.org/2000/svg" xmlns:xlink="http://www.w3.org/1999/xlink" viewBox="0 0 199.09 170.97"><defs><style>.cls-1{fill:url(#Dégradé_sans_nom_6);stroke-width:0px;}</style><linearGradient id="Dégradé_sans_nom_6" x1="1.06" y1="86.42" x2="202.8" y2="86.42" gradientTransform="translate(0 171.91) scale(1 -1)" gradientUnits="userSpaceOnUse"><stop offset="0" stop-color="#fcf7ef"/><stop offset=".35" stop-color="#fcf7ef"/><stop offset=".61" stop-color="#fcf7ef"/><stop offset="1" stop-color="#fcf7ef"/></linearGradient></defs><path class="cls-1" d="M199.09,170.97H0C17.26,140.87,82.87,26.48,95.87,3.81c.63-1.1,1.38-2.14,2.47-3.81,2.88,4.91,5.44,9.31,8.04,13.68,9.67,16.32,77.16,130.78,92.71,157.29ZM57.83,84.89c-14.16,24.32-28.12,48.74-42.01,73.21-2.68,4.73-1.73,6.09,3.95,6.16,8.49.11,16.99.05,25.48.05,43.8,0,87.6,0,131.4-.04,8.76,0,9.22-.95,4.67-8.61-16.23-27.35-32.46-54.69-48.66-82.04-10.26-17.33-20.45-34.71-30.75-52.01-3.18-5.34-4.57-5.36-7.82-.09-3.32,5.38-6.42,10.9-9.58,16.38-6.93,12.07-13.83,24.15-21.3,37.19-3.53,6.55-4.63,8.52-5.38,9.8Z"/></svg>