<?xml version="1.0" encoding="UTF-8"?><svg id="Calque_1" xmlns="http://www.w3.org/2000/svg" xmlns:xlink="http://www.w3.org/1999/xlink" viewBox="0 0 564 170.96"><defs><style>.cls-1{fill:url(#Dégradé_sans_nom_6);stroke-width:0px;}</style><linearGradient id="Dégradé_sans_nom_6" x1="3" y1="85.48" x2="574.53" y2="85.48" gradientUnits="userSpaceOnUse"><stop offset="0" stop-color="#fcf7ef" stop-opacity=".1"/><stop offset=".35" stop-color="#fcf7ef"/><stop offset=".61" stop-color="#fcf7ef"/><stop offset=".69" stop-color="rgba(252,247,239,.99)" stop-opacity=".99"/><stop offset=".74" stop-color="rgba(252,247,239,.95)" stop-opacity=".95"/><stop offset=".79" stop-color="rgba(252,247,239,.89)" stop-opacity=".89"/><stop offset=".83" stop-color="rgba(252,247,239,.8)" stop-opacity=".8"/><stop offset=".87" stop-color="rgba(252,247,239,.69)" stop-opacity=".69"/><stop offset=".91" stop-color="rgba(252,247,239,.55)" stop-opacity=".55"/><stop offset=".95" stop-color="rgba(252,247,239,.38)" stop-opacity=".38"/><stop offset=".98" stop-color="rgba(252,247,239,.2)" stop-opacity=".2"/><stop offset="1" stop-color="#fcf7ef" stop-opacity=".1"/></linearGradient></defs><path class="cls-1" d="M564,143.3c-8.78-1.76-17.62-3.31-26.35-5.33-61.97-14.31-123.92-28.71-185.87-43.09-3.72-.86-7.41-1.88-12.44-3.17,15.7,26.77,30.94,52.74,46.49,79.25h-199.09c17.26-30.1,34.43-60.03,52.14-90.9-7.72,2.03-14.53,3.79-21.33,5.61-70.74,18.92-141.47,37.86-212.21,56.76-1.73.46-3.56.58-5.34.86,0-.67,0-1.33,0-2,30.39-8.04,60.8-16.04,91.18-24.11,47.6-12.64,95.18-25.37,142.82-37.9,4.52-1.19,7.42-3.24,9.75-7.41,12.77-22.79,25.86-45.4,38.86-68.07.63-1.1,1.38-2.14,2.47-3.81,2.88,4.91,5.44,9.31,8.04,13.68,9.67,16.32,19.53,32.54,28.91,49.03,2.37,4.17,5.45,5.88,9.79,6.55,19.24,2.98,38.47,5.99,57.7,9.06,54.72,8.76,109.43,17.56,164.15,26.34,3.44.55,6.89,1.09,10.34,1.63v37ZM277.84,86.24c-1.63,0-2.95.15-4.23-.02-7.91-1.09-15.8-2.41-23.73-3.27-1.73-.19-4.56.65-5.31,1.93-14.16,24.32-28.12,48.74-42.01,73.21-2.68,4.73-1.73,6.09,3.95,6.16,8.49.11,16.99.05,25.48.05,43.8,0,87.6,0,131.4-.04,8.76,0,9.22-.95,4.67-8.61-16.23-27.35-32.46-54.69-48.66-82.04-10.26-17.33-20.45-34.71-30.75-52.01-3.18-5.34-4.57-5.36-7.82-.09-3.32,5.38-6.42,10.9-9.58,16.38-6.93,12.07-13.83,24.15-21.3,37.19,10.02-1.64,18.97-3.11,26.77-4.39.38,5.21.74,10.25,1.12,15.56Z"/></svg>